<svg xmlns="http://www.w3.org/2000/svg" viewBox="0 0 64 64">
  <!-- レインボーリング（8つの45°ウェッジ・launcher.cssと同じ純粋スペクトル） -->
  <path d="M32,32 L32,0 A32,32 0 0,1 54.63,9.37 Z" fill="#ff0040"/>
  <path d="M32,32 L54.63,9.37 A32,32 0 0,1 64,32 Z" fill="#ff8800"/>
  <path d="M32,32 L64,32 A32,32 0 0,1 54.63,54.63 Z" fill="#ffe600"/>
  <path d="M32,32 L54.63,54.63 A32,32 0 0,1 32,64 Z" fill="#00d048"/>
  <path d="M32,32 L32,64 A32,32 0 0,1 9.37,54.63 Z" fill="#00c8ff"/>
  <path d="M32,32 L9.37,54.63 A32,32 0 0,1 0,32 Z" fill="#5e3bff"/>
  <path d="M32,32 L0,32 A32,32 0 0,1 9.37,9.37 Z" fill="#ff00aa"/>
  <path d="M32,32 L9.37,9.37 A32,32 0 0,1 32,0 Z" fill="#ff0040"/>
  <!-- 白い核（中央） -->
  <circle cx="32" cy="32" r="23" fill="#ffffff"/>
  <!-- C 文字 -->
  <text x="32" y="44" text-anchor="middle"
        font-family="-apple-system,BlinkMacSystemFont,'Segoe UI',Arial,sans-serif"
        font-weight="900" font-size="32" fill="#0c0e14">C</text>
</svg>
